Simulation
nRows=40
nColumns=15
endheader
time  TH_x TH_y TH_z SC_y  SC_z  SC_x  AC_y  AC_z  AC_x  GH_y  GH_z  GH_yy  EL_x  PS_y
1.5  0.000000  0.000000  0.000000  -42.516298434176235  9.362488285718127  14.552577433644483  44.97349912544151  20.69530882599567  7.269124278985811  2.947399881692187  54.684599636653  2.626780097972863  19.646177498084285  0.000000
1.53  0.000000  0.000000  0.000000  -42.329105400763794  9.185346335943867  14.148659010832585  44.96132017610332  20.647272711912205  7.02227314020526  2.830448796009826  54.03868659980768  2.343345210109836  19.865125180177312  0.000000
1.56  0.000000  0.000000  0.000000  -42.09761388886444  8.971788858328242  13.667312621776125  44.95909197837656  20.575572432305833  6.7321522903119675  2.6879640831988003  53.22210473479079  1.948298688357879  20.173094596506882  0.000000
1.5899999999999999  0.000000  0.000000  0.000000  -41.829745515835  8.726552240872449  13.120659265137384  44.97014143030715  20.47266658596273  6.406262441274657  2.521415403868892  52.22801963797826  1.4477954466348408  20.58092480865919  0.000000
1.6199999999999999  0.000000  0.000000  0.000000  -41.53091715392171  8.45492762645425  12.51461698928127  44.99495670328215  20.32776553425642  6.050576772231953  2.334992273225553  51.0633421205076  0.8555937278450827  21.09883126841639  0.000000
1.65  0.000000  0.000000  0.000000  -41.20595778364535  8.160920318826523  11.852579636459724  45.03276420444504  20.12874890306431  5.66983840175762  2.1330870931724535  49.746663957631974  0.19342065444746476  21.733025536785004  0.000000
1.68  0.000000  0.000000  0.000000  -40.85655891158117  7.846421286923195  11.13616488891785  45.08313400614903  19.863769981880687  5.268596705554912  1.9185051263325006  48.30552141057342  -0.512324475738772  22.479174097259907  0.000000
1.71  0.000000  0.000000  0.000000  -40.482629971220405  7.510620965959578  10.366554481593365  45.146362078064676  19.525817326182555  4.853750014469254  1.6896119139331702  46.773595480920875  -1.2298949474585945  23.316573089996993  0.000000
1.74  0.000000  0.000000  0.000000  -40.08184691394008  7.152032351330845  9.543955582887655  45.221667120853326  19.113781178735184  4.43655127236131  1.4423190922419666  45.18783435088529  -1.9251176834779955  24.209763525328068  0.000000
1.77  0.000000  0.000000  0.000000  -39.654667648758334  6.771632746962162  8.676544027508736  45.30630240157679  18.62714809512678  4.027327458942487  1.1753843658341019  43.58463987828577  -2.5656637999496756  25.112260577965678  0.000000
1.7999999999999998  0.000000  0.000000  0.000000  -39.20085539566951  6.369257255614696  7.7815871124674425  45.39449127051921  18.067430935811633  3.6290079907550195  0.8949946903559497  41.997848470222635  -3.126970098849116  25.967726245078943  0.000000
1.8299999999999998  0.000000  0.000000  0.000000  -38.72261083588021  5.945770065124769  6.880326747207602  45.47821424758722  17.441456377698415  3.2415942689969865  0.6139543451701869  40.45518564680118  -3.593450809242374  26.712473419292806  0.000000
1.8599999999999999  0.000000  0.000000  0.000000  -38.22335204655052  5.504352740622671  5.994725311416583  45.54912086497434  16.75921206373845  2.8645169913226773  0.34758977484611  38.977259317812944  -3.9596358438202226  27.287663272684828  0.000000
1.89  0.000000  0.000000  0.000000  -37.709986585973965  5.049629672969009  5.146450948829734  45.60144406716858  16.033057232401884  2.495879562978669  0.10451033480569402  37.57704538580498  -4.227019708758832  27.65675733773963  0.000000
1.92  0.000000  0.000000  0.000000  -37.191163016710085  4.587058310469432  4.3529173745389045  45.63212725340914  15.276918472944033  2.1345063786068703  -0.11730340617421385  36.25940118688694  -4.403234782087333  27.81603196536161  0.000000
1.95  0.000000  0.000000  0.000000  -36.67982506172267  4.121787580306243  3.626491822496702  45.64226667583362  14.506180590278435  1.7803508352565673  -0.3275622980212248  35.02225965463106  -4.500544830592587  27.787362926307495  0.000000
1.98  0.000000  0.000000  0.000000  -36.18888404176788  3.6584360765535524  2.9762602253017967  45.635745170599336  13.735173533339584  1.4331903918620201  -0.5359289681060136  33.85758406062394  -4.536031899909197  27.602675763876615  0.000000
2.01  0.000000  0.000000  0.000000  -35.73064186048858  3.20126834617317  2.4088600225014583  45.6181179971924  12.976806822525486  1.0918622965690905  -0.7487971705238571  32.752832929146734  -4.527919150121143  27.29307899556771  0.000000
2.04  0.000000  0.000000  0.000000  -35.31359904146345  2.7539138347660304  1.928712994651938  45.59467848284222  12.242187420229591  0.7540823636305986  -0.9666499504657265  31.691758110072175  -4.494734508620526  26.8858665218676  0.000000
2.07  0.000000  0.000000  0.000000  -34.94373976609395  2.3202140766027397  1.5381633541153963  45.569761255292846  11.539855590616721  0.4170930711562987  -1.1863069800267219  30.6561391272245  -4.450498981375041  26.405528993328428  0.000000
2.1  0.000000  0.000000  0.000000  -34.62382098389988  1.9035920034434974  1.2367352621925676  45.54620998188517  10.875747743241387  0.07821048728808246  -1.4000444535622667  29.627955073601548  -4.404213327712392  25.874452906155817  0.000000
2.13  0.000000  0.000000  0.000000  -34.35356544864068  1.507125091661695  1.0171677801524024  45.52385224047009  10.256334487049873  -0.2615739998334906  -1.601583128719832  28.590881568820336  -4.352035849877991  25.313487035384917  0.000000
2.16  0.000000  0.000000  0.000000  -34.13013766658592  1.1322262810027186  0.8667232395532802  45.502874163548526  9.69081742909361  -0.59863228962643  -1.7828150862257153  27.52971058542653  -4.2830881538512315  24.741133442958468  0.000000
2.19  0.000000  0.000000  0.000000  -33.95054861883952  0.7815329995752436  0.76647435014763  45.48274765295893  9.19262606803274  -0.9207368716236326  -1.9343476293498167  26.42802211631377  -4.180161894509301  24.172625248206234  0.000000
2.2199999999999998  0.000000  0.000000  0.000000  -33.80678139738878  0.46189726871891723  0.7060449638440898  45.46545242545703  8.769679351548373  -1.2211053444778794  -2.0459876133748884  25.265609009990715  -4.022473876729874  23.61688319157352  0.000000
2.25  0.000000  0.000000  0.000000  -33.69276394695207  0.17757057351026495  0.692804044095118  45.454101166247014  8.419831002811948  -1.5050101611331252  -2.1180895781276003  24.02452173958319  -3.777057399972786  23.080128711846378  0.000000
2.28  0.000000  0.000000  0.000000  -33.602031151128436  -0.06916486168687452  0.7331123629135017  45.45013781800204  8.139712310996197  -1.7790419525598282  -2.1626001835210755  22.692158616117577  -3.4055388270783227  22.569197744312486  0.000000
2.31  0.000000  0.000000  0.000000  -33.52750749076854  -0.2742659620278811  0.8291466719498809  45.45097683084672  7.920258102000347  -2.0471661184984633  -2.20570111826536  21.263375676031945  -2.8665619038117134  22.096836770640063  0.000000
2.34  0.000000  0.000000  0.000000  -33.46041548965499  -0.43396240205948683  0.9733254210608023  45.44865645580948  7.750654629651655  -2.309652254785794  -2.280873789275455  19.742598537674173  -2.1249762673311463  21.68657418833922  0.000000
2.37  0.000000  0.000000  0.000000  -33.39335754806715  -0.5488846303815403  1.1511111373610974  45.43168090622016  7.621962451827175  -2.5669762631991184  -2.4278966889127833  18.143731217102992  -1.1500239247814528  21.365822203070778  0.000000
2.4  0.000000  0.000000  0.000000  -33.32023597264223  -0.6222341508000143  1.348500331773737  45.387648110163184  7.524094383101531  -2.8217413254544788  -2.6696697916646634  16.484756977823707  0.06633297155482812  21.15280450779463  0.000000
2.4299999999999997  0.000000  0.000000  0.000000  -33.23976631780428  -0.6546342375062527  1.5480282706938826  45.30470485895762  7.44698146797702  -3.070959406195802  -2.980985735089142  14.783240176512823  1.4834761472648939  21.04641277479708  0.000000
2.46  0.000000  0.000000  0.000000  -33.149685817185066  -0.6499135972726582  1.7256909848103246  45.17072510720068  7.389874321950257  -3.309688718792978  -3.290134978462031  13.057412789315183  3.0138587839212976  21.034288541633334  0.000000
2.4899999999999998  0.000000  0.000000  0.000000  -33.0470176543618  -0.6150097570777805  1.8642773176329899  44.98022629913472  7.352612304653976  -3.534480590852655  -3.526351955545832  11.328846492032275  4.573637877084476  21.098517457413294  0.000000
2.52  0.000000  0.000000  0.000000  -32.92195698155136  -0.5586447646741372  1.9566881909063139  44.74289913184846  7.3316185604443  -3.742169056572931  -3.6713014407373397  9.623398055419672  6.1346734804847864  21.221409093128898  0.000000
2.55  0.000000  0.000000  0.000000  -32.75946931377757  -0.49272425181178175  2.0037615473298747  44.484009738259495  7.321976022246619  -3.9242731622781526  -3.8462224760976342  7.971875954985515  7.8130558892700686  21.386821520883725  0.000000
2.58  0.000000  0.000000  0.000000  -32.540585691600256  -0.42914819205850946  2.012000545882212  44.2401982447578  7.317293005589157  -4.071234742952901  -4.350289341153084  6.407478779149456  9.901964047610507  21.579419921922785  0.000000
2.61  0.000000  0.000000  0.000000  -32.25444668150134  -0.377485029472962  1.9912291277298888  44.04531461495505  7.310021111362894  -4.173480867944371  -5.745651723391167  4.963222025820417  12.952103642839328  21.784600489463134  0.000000
2.6399999999999997  0.000000  0.000000  0.000000  -31.90104761246175  -0.34293183464787064  1.9512292015849841  43.921478772867744  7.2932645955795765  -4.227583921748064  -9.01248653699332  3.6718620450262724  17.92009274835717  21.99128109388561  0.000000
2.67  0.000000  0.000000  0.000000  -31.493485266203727  -0.32598632857898996  1.8996508735950097  43.8756830503614  7.261820783780511  -4.234289439003101  -16.114379942503952  2.572627855695389  26.73610114993671  22.189605567405223  0.000000
